<svg width="44" height="44" viewBox="0 0 44 44" fill="none" xmlns="http://www.w3.org/2000/svg">
<path d="M21.5415 12.8332C24.0141 12.8332 25.536 14.6099 25.6585 17.1029L25.6665 17.432V21.3104L29.735 22.0492C29.8942 22.0781 30.0521 22.1135 30.2084 22.1552C33.278 22.9753 35.1445 26.0481 34.5051 29.1205L34.4269 29.4496L32.5053 36.642C32.1055 38.1384 30.9049 39.2758 29.409 39.6054L29.106 39.6605L24.6726 40.2967C22.9775 40.5399 21.3208 39.7108 20.492 38.237L20.3465 37.9532L20.2932 37.8386C19.8627 36.9131 19.2165 36.107 18.4115 35.4865L18.057 35.2321L14.6035 32.9298L14.4313 32.8227L14.2528 32.7267L9.92076 30.5717C9.46338 30.3442 9.16984 29.8819 9.15852 29.3711C9.11346 27.3387 10.012 25.7706 11.7599 24.8966C13.0467 24.2533 14.7575 24.2896 16.9413 24.9271L17.4165 25.0729V17.432C17.4165 14.7677 18.9615 12.8332 21.5415 12.8332ZM21.5415 15.5832C20.6982 15.5832 20.2355 16.0872 20.1737 17.1715L20.1665 17.432V27.0461C20.1665 28.0251 19.1725 28.6905 18.2674 28.3173C15.5896 27.2132 13.7914 26.9555 12.9898 27.3563C12.5241 27.5891 12.2194 27.8897 12.0551 28.3078L11.9846 28.527L15.4776 30.2646L15.8092 30.4428L16.1289 30.6416L19.5824 32.944C20.834 33.7784 21.8571 34.9085 22.5631 36.2309L22.7866 36.6787L22.8399 36.7934C23.0673 37.2822 23.5555 37.5873 24.0828 37.5885L24.282 37.5745L28.7154 36.9384C29.1924 36.8699 29.5933 36.5583 29.7814 36.125L29.8485 35.9322L31.7701 28.7398C32.2274 27.0279 31.2105 25.2694 29.4986 24.8121L29.3717 24.7809L24.0459 23.8111C23.4573 23.7043 23.0134 23.2323 22.9305 22.6544L22.9165 22.4582V17.432C22.9165 16.1678 22.4497 15.5832 21.5415 15.5832ZM21.5394 3.6665C28.8808 3.6665 34.8322 9.61789 34.8322 16.9593C34.8322 18.7671 34.4713 20.4907 33.8176 22.0618C33.1295 21.4535 32.3245 20.9613 31.4259 20.6229C31.8509 19.4829 32.0822 18.2481 32.0822 16.9593C32.0822 11.1367 27.362 6.4165 21.5394 6.4165C15.7168 6.4165 10.9966 11.1367 10.9966 16.9593C10.9966 19.0742 11.6193 21.0437 12.6914 22.6943C12.0722 22.7954 11.4895 22.9821 10.94 23.2569C10.6449 23.4044 10.3668 23.5676 10.106 23.7454C8.92583 21.761 8.24658 19.4395 8.24658 16.9593C8.24658 9.61789 14.198 3.6665 21.5394 3.6665ZM21.5394 8.25311C26.3477 8.25311 30.2456 12.151 30.2456 16.9593C30.2456 18.0925 30.0291 19.1752 29.6352 20.1681L27.4999 19.78V17.432L27.4923 17.0749L27.4956 16.9593C27.4956 15.7116 27.1119 14.5534 26.4561 13.5964L26.2924 13.3535C25.2693 11.91 23.6351 10.9998 21.5415 10.9998C19.3872 10.9998 17.7194 11.9636 16.7032 13.4804C15.9989 14.4588 15.5832 15.6605 15.5832 16.9593L15.5875 17.1623L15.5832 17.432V22.7302L15.1026 22.6637C14.6674 22.6092 14.2661 22.4005 13.9716 22.0755C13.2126 21.2378 12.8332 19.5324 12.8332 16.9593C12.8332 12.151 16.7311 8.25311 21.5394 8.25311Z" fill="#1C1B22"/>
<mask id="mask0" mask-type="alpha" maskUnits="userSpaceOnUse" x="8" y="3" width="27" height="38">
<path d="M21.5415 12.8332C24.0141 12.8332 25.536 14.6099 25.6585 17.1029L25.6665 17.432V21.3104L29.735 22.0492C29.8942 22.0781 30.0521 22.1135 30.2084 22.1552C33.278 22.9753 35.1445 26.0481 34.5051 29.1205L34.4269 29.4496L32.5053 36.642C32.1055 38.1384 30.9049 39.2758 29.409 39.6055L29.106 39.6605L24.6726 40.2967C22.9775 40.5399 21.3208 39.7108 20.492 38.237L20.3465 37.9532L20.2932 37.8386C19.8627 36.9131 19.2165 36.107 18.4115 35.4865L18.057 35.2321L14.6035 32.9298L14.4313 32.8227L14.2528 32.7267L9.92076 30.5717C9.46338 30.3442 9.16984 29.8819 9.15852 29.3711C9.11346 27.3387 10.012 25.7706 11.7599 24.8966C13.0467 24.2533 14.7575 24.2896 16.9413 24.9271L17.4165 25.0729V17.432C17.4165 14.7677 18.9615 12.8332 21.5415 12.8332ZM21.5415 15.5832C20.6982 15.5832 20.2355 16.0872 20.1737 17.1715L20.1665 17.432V27.0461C20.1665 28.0251 19.1725 28.6905 18.2674 28.3173C15.5896 27.2132 13.7914 26.9555 12.9898 27.3563C12.5241 27.5891 12.2194 27.8897 12.0551 28.3078L11.9846 28.527L15.4776 30.2646L15.8092 30.4428L16.1289 30.6416L19.5824 32.944C20.834 33.7784 21.8571 34.9085 22.5631 36.2309L22.7866 36.6787L22.8399 36.7934C23.0673 37.2822 23.5555 37.5873 24.0828 37.5886L24.282 37.5745L28.7154 36.9384C29.1924 36.8699 29.5933 36.5583 29.7814 36.125L29.8485 35.9322L31.7701 28.7398C32.2274 27.0279 31.2105 25.2694 29.4986 24.8121L29.3717 24.7809L24.0459 23.8111C23.4573 23.7043 23.0134 23.2323 22.9305 22.6544L22.9165 22.4583V17.432C22.9165 16.1678 22.4497 15.5832 21.5415 15.5832ZM21.5394 3.6665C28.8808 3.6665 34.8322 9.61789 34.8322 16.9593C34.8322 18.7671 34.4713 20.4907 33.8176 22.0618C33.1295 21.4535 32.3245 20.9613 31.4259 20.6229C31.8509 19.4829 32.0822 18.2481 32.0822 16.9593C32.0822 11.1367 27.362 6.4165 21.5394 6.4165C15.7168 6.4165 10.9966 11.1367 10.9966 16.9593C10.9966 19.0742 11.6193 21.0437 12.6914 22.6943C12.0722 22.7954 11.4895 22.9821 10.94 23.2569C10.6449 23.4044 10.3668 23.5676 10.106 23.7454C8.92583 21.761 8.24658 19.4395 8.24658 16.9593C8.24658 9.61789 14.198 3.6665 21.5394 3.6665ZM21.5394 8.25311C26.3477 8.25311 30.2456 12.151 30.2456 16.9593C30.2456 18.0925 30.0291 19.1752 29.6352 20.1681L27.4999 19.78V17.432L27.4923 17.0749L27.4956 16.9593C27.4956 15.7116 27.1119 14.5534 26.4561 13.5964L26.2924 13.3535C25.2693 11.91 23.6351 10.9998 21.5415 10.9998C19.3872 10.9998 17.7194 11.9636 16.7032 13.4804C15.9989 14.4588 15.5832 15.6605 15.5832 16.9593L15.5875 17.1623L15.5832 17.432V22.7303L15.1026 22.6637C14.6674 22.6092 14.2661 22.4005 13.9716 22.0755C13.2126 21.2378 12.8332 19.5324 12.8332 16.9593C12.8332 12.151 16.7311 8.25311 21.5394 8.25311Z" fill="#212121"/>
</mask>
<g mask="url(#mask0)">
<path d="M12.4477 23.4471C11.2898 23.9103 8.49151 24.219 7.23712 24.3155C5.50028 18.8155 6.65818 11.8681 11.5792 6.36814C16.5003 0.868145 22.8687 -0.579224 33.0003 4.34183C43.1319 9.26288 37.0529 23.4471 36.1845 23.4471C35.3161 23.4471 26.6319 21.4208 26.3424 19.9734C26.0529 18.526 25.7634 15.0524 24.895 13.3155C24.0266 11.5787 20.8424 11.8682 18.2371 13.3155C15.6319 14.7629 16.5003 21.7103 16.5003 23.4471C16.5003 25.1839 13.895 22.8681 12.4477 23.4471Z" fill="#2130BB"/>
</g>
</svg>
