<svg width="24" height="24" viewBox="0 0 24 24" fill="none" xmlns="http://www.w3.org/2000/svg">
<path d="M11.5358 2.16088C11.8081 1.94637 12.1919 1.94637 12.4642 2.16088L19.5708 7.76003C20.4733 8.4711 21 9.55666 21 10.7056V20C21 20.6904 20.4404 21.25 19.75 21.25H14.75C14.0596 21.25 13.5 20.6904 13.5 20V15C13.5 14.8619 13.3881 14.75 13.25 14.75H10.75C10.6119 14.75 10.5 14.8619 10.5 15V20C10.5 20.6904 9.94036 21.25 9.25 21.25H4.25C3.55964 21.25 3 20.6904 3 20V10.7056C3 9.55666 3.52672 8.4711 4.42923 7.76003L11.5358 2.16088ZM12 3.70482L5.35754 8.93827C4.81603 9.36491 4.5 10.0162 4.5 10.7056V19.75H9V15C9 14.0335 9.7835 13.25 10.75 13.25H13.25C14.2165 13.25 15 14.0335 15 15V19.75H19.5V10.7056C19.5 10.0162 19.184 9.36491 18.6425 8.93827L12 3.70482Z" fill="white"/>
</svg>
