<svg width="134" height="40" viewBox="0 0 134 40" fill="none" xmlns="http://www.w3.org/2000/svg">
<path d="M55.582 22.2822C55.3789 21.2822 55.2773 20.1025 55.2773 18.7432C55.2773 17.3838 55.3828 16.2119 55.5938 15.2275C55.8047 14.2354 56.1055 13.4111 56.4961 12.7549C56.8945 12.0986 57.418 11.5791 58.0664 11.1963C58.7227 10.8057 59.4531 10.5322 60.2578 10.376C61.0625 10.2119 62.0156 10.1299 63.1172 10.1299C63.8828 10.1299 64.7109 10.1885 65.6016 10.3057C66.4922 10.4229 67.2656 10.5713 67.9219 10.751L67.2188 13.54C66.7891 13.3838 66.2305 13.2549 65.543 13.1533C64.8633 13.0518 64.2383 13.001 63.668 13.001C63.0039 13.001 62.4531 13.0244 62.0156 13.0713C61.5859 13.1182 61.1641 13.2158 60.75 13.3643C60.3438 13.5049 60.0195 13.7041 59.7773 13.9619C59.543 14.2197 59.332 14.5635 59.1445 14.9932C58.9648 15.4229 58.8359 15.9463 58.7578 16.5635C58.6875 17.1729 58.6523 17.9072 58.6523 18.7666C58.6523 19.626 58.6875 20.3682 58.7578 20.9932C58.8359 21.6104 58.9648 22.1416 59.1445 22.5869C59.332 23.0244 59.5469 23.3799 59.7891 23.6533C60.0312 23.9268 60.3516 24.1416 60.75 24.2979C61.1562 24.4541 61.582 24.5596 62.0273 24.6143C62.4727 24.6689 63.0195 24.6963 63.668 24.6963C64.2461 24.6963 64.875 24.6494 65.5547 24.5557C66.2422 24.4541 66.7969 24.3252 67.2188 24.1689L67.9219 26.9932C67.2734 27.1729 66.5039 27.3174 65.6133 27.4268C64.7227 27.5439 63.8906 27.6025 63.1172 27.6025C62.0234 27.6025 61.0703 27.5127 60.2578 27.333C59.4453 27.1533 58.7148 26.8604 58.0664 26.4541C57.4258 26.04 56.9023 25.4932 56.4961 24.8135C56.0977 24.126 55.793 23.2822 55.582 22.2822ZM71.6325 27.2627V10.54H74.8083V24.4971H82.695V27.2627H71.6325ZM86.1712 27.2627V10.54H89.347V27.2627H86.1712ZM94.3467 22.2822C94.1436 21.2822 94.042 20.1025 94.042 18.7432C94.042 17.3838 94.1475 16.2119 94.3584 15.2275C94.5694 14.2354 94.8702 13.4111 95.2608 12.7549C95.6592 12.0986 96.1827 11.5791 96.8311 11.1963C97.4873 10.8057 98.2178 10.5322 99.0225 10.376C99.8272 10.2119 100.78 10.1299 101.882 10.1299C102.647 10.1299 103.476 10.1885 104.366 10.3057C105.257 10.4229 106.03 10.5713 106.687 10.751L105.983 13.54C105.554 13.3838 104.995 13.2549 104.308 13.1533C103.628 13.0518 103.003 13.001 102.433 13.001C101.769 13.001 101.218 13.0244 100.78 13.0713C100.351 13.1182 99.9287 13.2158 99.5147 13.3643C99.1084 13.5049 98.7842 13.7041 98.542 13.9619C98.3077 14.2197 98.0967 14.5635 97.9092 14.9932C97.7295 15.4229 97.6006 15.9463 97.5225 16.5635C97.4522 17.1729 97.417 17.9072 97.417 18.7666C97.417 19.626 97.4522 20.3682 97.5225 20.9932C97.6006 21.6104 97.7295 22.1416 97.9092 22.5869C98.0967 23.0244 98.3116 23.3799 98.5537 23.6533C98.7959 23.9268 99.1162 24.1416 99.5147 24.2979C99.9209 24.4541 100.347 24.5596 100.792 24.6143C101.237 24.6689 101.784 24.6963 102.433 24.6963C103.011 24.6963 103.64 24.6494 104.319 24.5557C105.007 24.4541 105.562 24.3252 105.983 24.1689L106.687 26.9932C106.038 27.1729 105.269 27.3174 104.378 27.4268C103.487 27.5439 102.655 27.6025 101.882 27.6025C100.788 27.6025 99.835 27.5127 99.0225 27.333C98.21 27.1533 97.4795 26.8604 96.8311 26.4541C96.1905 26.04 95.667 25.4932 95.2608 24.8135C94.8623 24.126 94.5577 23.2822 94.3467 22.2822ZM110.397 27.2627V10.54H113.573V27.2627H110.397ZM113.596 18.4268C114.182 18.0049 115.077 17.0869 116.28 15.6729C117.491 14.251 118.772 12.54 120.124 10.54H123.956C122.557 12.5088 121.28 14.1768 120.124 15.5439C118.975 16.9111 118.151 17.8018 117.651 18.2158C118.182 18.5674 119.081 19.5439 120.346 21.1455C121.612 22.7471 122.991 24.7861 124.483 27.2627H120.604C119.057 24.708 117.639 22.6533 116.35 21.0986C115.069 19.5361 114.151 18.6455 113.596 18.4268Z" fill="white"/>
<path d="M1.82812 27V10.2773H11.7891C12.625 10.2773 13.3125 10.3555 13.8516 10.5117C14.3984 10.6602 14.832 10.9062 15.1523 11.25C15.4727 11.5859 15.6953 11.9961 15.8203 12.4805C15.9453 12.9648 16.0078 13.5742 16.0078 14.3086C16.0078 14.957 15.957 15.5 15.8555 15.9375C15.7539 16.3672 15.5703 16.7578 15.3047 17.1094C15.0469 17.4531 14.6758 17.7188 14.1914 17.9062C13.7148 18.0938 13.1055 18.2148 12.3633 18.2695C13.1523 18.3008 13.8047 18.4141 14.3203 18.6094C14.8359 18.7969 15.2344 19.0781 15.5156 19.4531C15.8047 19.8281 16.0039 20.2617 16.1133 20.7539C16.2227 21.2383 16.2773 21.8398 16.2773 22.5586C16.2773 23.3945 16.1719 24.1055 15.9609 24.6914C15.7578 25.2773 15.4492 25.7383 15.0352 26.0742C14.6289 26.4023 14.1641 26.6406 13.6406 26.7891C13.1172 26.9297 12.5 27 11.7891 27H1.82812ZM6.41016 23.0859H10.4414C10.7148 23.0859 10.9258 22.9844 11.0742 22.7812C11.2305 22.5781 11.3086 22.2227 11.3086 21.7148C11.3086 21.1758 11.2266 20.8008 11.0625 20.5898C10.8984 20.3711 10.6602 20.2617 10.3477 20.2617H6.41016V23.0859ZM6.41016 16.5352H10.3711C10.6055 16.5352 10.7773 16.4648 10.8867 16.3242C11.0039 16.1758 11.0625 15.8633 11.0625 15.3867C11.0625 14.9258 11.0039 14.6094 10.8867 14.4375C10.7695 14.2656 10.5977 14.1797 10.3711 14.1797H6.41016V16.5352ZM19.3008 22.6758V10.2773H23.918V21.668C23.918 22.1445 24.1133 22.4922 24.5039 22.7109C24.8945 22.9297 25.5938 23.0391 26.6016 23.0391C27.6094 23.0391 28.3125 22.9297 28.7109 22.7109C29.1094 22.4922 29.3086 22.1445 29.3086 21.668V10.2773H33.9258V22.6758C33.9258 23.4023 33.8086 24.0391 33.5742 24.5859C33.3398 25.125 33.0195 25.5703 32.6133 25.9219C32.207 26.2656 31.6875 26.5469 31.0547 26.7656C30.4297 26.9766 29.7578 27.125 29.0391 27.2109C28.3281 27.2969 27.5156 27.3398 26.6016 27.3398C25.6797 27.3398 24.8594 27.2969 24.1406 27.2109C23.4297 27.125 22.7617 26.9766 22.1367 26.7656C21.5195 26.5469 21.0078 26.2656 20.6016 25.9219C20.1953 25.5703 19.875 25.125 19.6406 24.5859C19.4141 24.0391 19.3008 23.4023 19.3008 22.6758ZM33.8789 10.2773H39.9727C41.1914 11.8867 42.5117 13.6992 43.9336 15.7148C45.7852 13.0195 46.9688 11.207 47.4844 10.2773H53.168C51.4961 12.9336 49.168 16.3711 46.1836 20.5898V27H41.6016V20.6133C37.8828 15.4414 35.3086 11.9961 33.8789 10.2773Z" fill="white"/>
</svg>
