<svg width="44" height="44" viewBox="0 0 44 44" fill="none" xmlns="http://www.w3.org/2000/svg">
<path d="M34.3729 5.49902C36.651 5.49902 38.4979 7.34585 38.4979 9.62402V34.3782C38.4979 36.6564 36.651 38.5032 34.3729 38.5032H9.625C7.34683 38.5032 5.5 36.6564 5.5 34.3782V9.62402C5.5 7.34585 7.34683 5.49902 9.625 5.49902H34.3729ZM34.3729 8.24902H9.625C8.86561 8.24902 8.25 8.86463 8.25 9.62402V34.3782C8.25 35.1376 8.86561 35.7532 9.625 35.7532H34.3729C35.1323 35.7532 35.7479 35.1376 35.7479 34.3782V9.62402C35.7479 8.86463 35.1323 8.24902 34.3729 8.24902ZM15.1343 21.0832L17.9882 14.5728C18.4489 13.5218 19.8871 13.4827 20.4326 14.4254L20.524 14.6137L24.8897 25.516L26.729 21.8425C26.9329 21.4353 27.3228 21.1593 27.7657 21.0967L27.9585 21.0832H31.625C32.3844 21.0832 33 21.6988 33 22.4582C33 23.1543 32.4827 23.7296 31.8116 23.8206L31.625 23.8332H28.8077L25.9795 29.4816C25.4798 30.4795 24.0914 30.4816 23.5623 29.5606L23.4735 29.3771L19.1902 18.6805L17.2922 23.0102C17.1004 23.4477 16.6981 23.7497 16.2347 23.8183L16.0329 23.8332H12.375C11.6156 23.8332 11 23.2176 11 22.4582C11 21.7621 11.5173 21.1868 12.1884 21.0957L12.375 21.0832H15.1343L17.9882 14.5728L15.1343 21.0832Z" fill="#1C1B22"/>
<mask id="mask0" mask-type="alpha" maskUnits="userSpaceOnUse" x="5" y="5" width="34" height="34">
<path d="M34.3729 5.49902C36.651 5.49902 38.4979 7.34585 38.4979 9.62402V34.3782C38.4979 36.6564 36.651 38.5032 34.3729 38.5032H9.625C7.34683 38.5032 5.5 36.6564 5.5 34.3782V9.62402C5.5 7.34585 7.34683 5.49902 9.625 5.49902H34.3729ZM34.3729 8.24902H9.625C8.86561 8.24902 8.25 8.86463 8.25 9.62402V34.3782C8.25 35.1376 8.86561 35.7532 9.625 35.7532H34.3729C35.1323 35.7532 35.7479 35.1376 35.7479 34.3782V9.62402C35.7479 8.86463 35.1323 8.24902 34.3729 8.24902ZM15.1343 21.0832L17.9882 14.5728C18.4489 13.5218 19.8871 13.4827 20.4326 14.4254L20.524 14.6137L24.8897 25.516L26.729 21.8425C26.9329 21.4353 27.3228 21.1593 27.7657 21.0967L27.9585 21.0832H31.625C32.3844 21.0832 33 21.6988 33 22.4582C33 23.1543 32.4827 23.7296 31.8116 23.8206L31.625 23.8332H28.8077L25.9795 29.4816C25.4798 30.4795 24.0914 30.4816 23.5623 29.5606L23.4735 29.3771L19.1902 18.6805L17.2922 23.0102C17.1004 23.4477 16.6981 23.7497 16.2347 23.8183L16.0329 23.8332H12.375C11.6156 23.8332 11 23.2176 11 22.4582C11 21.7621 11.5173 21.1868 12.1884 21.0957L12.375 21.0832H15.1343L17.9882 14.5728L15.1343 21.0832Z" fill="#212121"/>
</mask>
<g mask="url(#mask0)">
<path d="M11 17.9997C11 16.4997 14.5 13.4997 15 12.4997C17.1667 11.833 21.8 10.8997 23 12.4997C24.5 14.4997 28 14.9997 31.5 15.4997C35 15.9997 34.5 19.4997 34.5 23.4997C34.5 27.4997 32 27.9997 31.5 27.9997C31.1 27.9997 29 31.6663 28 33.4997C26.6667 33.333 23.5 32.7997 21.5 31.9997C19.5 31.1997 18.3333 28.9997 18 27.9997H12C10 27.9997 9.5 24.4997 9.5 23.4997C9.5 22.4997 11 19.4997 11 17.9997Z" fill="#2130BB"/>
</g>
</svg>
