<svg width="24" height="24" viewBox="0 0 24 24" fill="none" xmlns="http://www.w3.org/2000/svg">
<path d="M17.5001 11.9998C20.5377 11.9998 23.0001 14.4622 23.0001 17.4998C23.0001 20.5373 20.5377 22.9998 17.5001 22.9998C14.4626 22.9998 12.0001 20.5373 12.0001 17.4998C12.0001 14.4622 14.4626 11.9998 17.5001 11.9998ZM12.0224 13.9991C11.7257 14.4624 11.4862 14.9658 11.3137 15.4994L4.25254 15.4997C3.83895 15.4997 3.50366 15.835 3.50366 16.2486V16.8262C3.50366 17.3619 3.69477 17.88 4.04263 18.2874C5.29594 19.755 7.26182 20.5008 10.0001 20.5008C10.5966 20.5008 11.1564 20.4655 11.6804 20.3949C11.9255 20.8898 12.2331 21.3484 12.5919 21.7613C11.7964 21.9215 10.9315 22.0008 10.0001 22.0008C6.85426 22.0008 4.46825 21.0957 2.90194 19.2614C2.32218 18.5825 2.00366 17.719 2.00366 16.8262V16.2486C2.00366 15.0065 3.01052 13.9997 4.25254 13.9997L12.0224 13.9991ZM17.5001 13.4998L17.4102 13.5078C17.2062 13.5449 17.0452 13.7058 17.0082 13.9099L17.0001 13.9998L16.9991 16.9998H14.0001L13.9102 17.0078C13.7062 17.0449 13.5452 17.2058 13.5082 17.4099L13.5001 17.4998L13.5082 17.5896C13.5452 17.7937 13.7062 17.9547 13.9102 17.9917L14.0001 17.9998H16.9991L17.0001 20.9998L17.0082 21.0896C17.0452 21.2937 17.2062 21.4547 17.4102 21.4917L17.5001 21.4998L17.59 21.4917C17.7941 21.4547 17.955 21.2937 17.9921 21.0896L18.0001 20.9998L17.9991 17.9998H21.0001L21.09 17.9917C21.2941 17.9547 21.455 17.7937 21.4921 17.5896L21.5001 17.4998L21.4921 17.4099C21.455 17.2058 21.2941 17.0449 21.09 17.0078L21.0001 16.9998H17.9991L18.0001 13.9998L17.9921 13.9099C17.955 13.7058 17.7941 13.5449 17.59 13.5078L17.5001 13.4998ZM10.0001 2.00439C12.7615 2.00439 15.0001 4.24297 15.0001 7.00439C15.0001 9.76582 12.7615 12.0044 10.0001 12.0044C7.2387 12.0044 5.00012 9.76582 5.00012 7.00439C5.00012 4.24297 7.2387 2.00439 10.0001 2.00439ZM10.0001 3.50439C8.06712 3.50439 6.50012 5.0714 6.50012 7.00439C6.50012 8.93739 8.06712 10.5044 10.0001 10.5044C11.9331 10.5044 13.5001 8.93739 13.5001 7.00439C13.5001 5.0714 11.9331 3.50439 10.0001 3.50439Z" fill="white"/>
</svg>
