<svg width="44" height="44" viewBox="0 0 44 44" fill="none" xmlns="http://www.w3.org/2000/svg">
<path d="M32.0834 22C37.6523 22 42.1667 26.5145 42.1667 32.0833C42.1667 37.6522 37.6523 42.1667 32.0834 42.1667C26.5145 42.1667 22.0001 37.6522 22.0001 32.0833C22.0001 26.5145 26.5145 22 32.0834 22ZM32.0834 25.6653L31.9186 25.68C31.5445 25.7479 31.2494 26.043 31.1815 26.4172L31.1667 26.5819L31.1661 31.1653L26.5791 31.1667L26.4143 31.1814C26.0402 31.2493 25.7451 31.5444 25.6772 31.9186L25.6624 32.0833L25.6772 32.2481C25.7451 32.6223 26.0402 32.9173 26.4143 32.9852L26.5791 33L31.1679 32.9986L31.1688 37.5897L31.1835 37.7545C31.2515 38.1287 31.5465 38.4237 31.9207 38.4916L32.0854 38.5064L32.2502 38.4916C32.6244 38.4237 32.9194 38.1287 32.9873 37.7545L33.0021 37.5897L33.0013 32.9986L37.5918 33L37.7565 32.9852C38.1307 32.9173 38.4258 32.6223 38.4937 32.2481L38.5084 32.0833L38.4937 31.9186C38.4258 31.5444 38.1307 31.2493 37.7565 31.1814L37.5918 31.1667L32.9994 31.1653L33.0001 26.5819L32.9853 26.4172C32.9174 26.043 32.6224 25.7479 32.2482 25.68L32.0834 25.6653ZM26.1325 18.3333C27.6625 18.3333 28.9979 19.1663 29.71 20.4035C28.732 20.6008 27.7991 20.9176 26.9254 21.3378C26.7023 21.1768 26.4283 21.0833 26.1325 21.0833H17.8786C17.1192 21.0833 16.5036 21.6989 16.5036 22.4583V30.2481C16.5036 32.8347 18.2886 35.0045 20.6941 35.5927C21.0109 36.6296 21.4679 37.6068 22.0415 38.5022L22.0055 38.5C17.4481 38.5 13.7536 34.8055 13.7536 30.2481V22.4583C13.7536 20.1802 15.6004 18.3333 17.8786 18.3333H26.1325ZM13.5786 18.3338C12.855 19.088 12.3279 20.0321 12.0796 21.084L7.79175 21.0833C7.03236 21.0833 6.41675 21.6989 6.41675 22.4583V27.4977C6.41675 30.0303 8.46979 32.0833 11.0024 32.0833C11.369 32.0833 11.7256 32.0403 12.0674 31.959C12.2227 32.8829 12.5063 33.764 12.8973 34.584C12.294 34.7473 11.6582 34.8333 11.0024 34.8333C6.95101 34.8333 3.66675 31.5491 3.66675 27.4977V22.4583C3.66675 20.2751 5.36288 18.488 7.50932 18.3428L7.79175 18.3333L13.5786 18.3338ZM36.2084 18.3333C38.4866 18.3333 40.3334 20.1802 40.3334 22.4583L40.3349 23.4857C38.1936 21.4301 35.2861 20.1667 32.0834 20.1667L31.6339 20.175C31.3519 19.4868 30.9406 18.8635 30.4325 18.3338L36.2084 18.3333ZM33.9167 7.33333C36.448 7.33333 38.5001 9.38536 38.5001 11.9167C38.5001 14.448 36.448 16.5 33.9167 16.5C31.3854 16.5 29.3334 14.448 29.3334 11.9167C29.3334 9.38536 31.3854 7.33333 33.9167 7.33333ZM22.0001 5.5C25.0376 5.5 27.5001 7.96243 27.5001 11C27.5001 14.0376 25.0376 16.5 22.0001 16.5C18.9625 16.5 16.5001 14.0376 16.5001 11C16.5001 7.96243 18.9625 5.5 22.0001 5.5ZM10.0834 7.33333C12.6147 7.33333 14.6667 9.38536 14.6667 11.9167C14.6667 14.448 12.6147 16.5 10.0834 16.5C7.55211 16.5 5.50008 14.448 5.50008 11.9167C5.50008 9.38536 7.55211 7.33333 10.0834 7.33333ZM33.9167 10.0833C32.9042 10.0833 32.0834 10.9041 32.0834 11.9167C32.0834 12.9292 32.9042 13.75 33.9167 13.75C34.9293 13.75 35.7501 12.9292 35.7501 11.9167C35.7501 10.9041 34.9293 10.0833 33.9167 10.0833ZM22.0001 8.25C20.4813 8.25 19.2501 9.48122 19.2501 11C19.2501 12.5188 20.4813 13.75 22.0001 13.75C23.5189 13.75 24.7501 12.5188 24.7501 11C24.7501 9.48122 23.5189 8.25 22.0001 8.25ZM10.0834 10.0833C9.07089 10.0833 8.25008 10.9041 8.25008 11.9167C8.25008 12.9292 9.07089 13.75 10.0834 13.75C11.0959 13.75 11.9167 12.9292 11.9167 11.9167C11.9167 10.9041 11.0959 10.0833 10.0834 10.0833Z" fill="#1C1B22"/>
<mask id="mask0" mask-type="alpha" maskUnits="userSpaceOnUse" x="3" y="5" width="40" height="38">
<path d="M32.0832 22C37.652 22 42.1665 26.5145 42.1665 32.0833C42.1665 37.6522 37.652 42.1667 32.0832 42.1667C26.5143 42.1667 21.9998 37.6522 21.9998 32.0833C21.9998 26.5145 26.5143 22 32.0832 22ZM32.0832 25.6653L31.9184 25.68C31.5442 25.7479 31.2492 26.043 31.1813 26.4172L31.1665 26.5819L31.1659 31.1653L26.5789 31.1667L26.4141 31.1814C26.0399 31.2493 25.7449 31.5444 25.677 31.9186L25.6622 32.0833L25.677 32.2481C25.7449 32.6223 26.0399 32.9173 26.4141 32.9852L26.5789 33L31.1677 32.9986L31.1685 37.5897L31.1833 37.7545C31.2512 38.1287 31.5463 38.4237 31.9204 38.4916L32.0852 38.5064L32.25 38.4916C32.6241 38.4237 32.9192 38.1287 32.9871 37.7545L33.0019 37.5897L33.001 32.9986L37.5915 33L37.7563 32.9852C38.1305 32.9173 38.4255 32.6223 38.4934 32.2481L38.5082 32.0833L38.4934 31.9186C38.4255 31.5444 38.1305 31.2493 37.7563 31.1814L37.5915 31.1667L32.9992 31.1653L32.9998 26.5819L32.9851 26.4172C32.9172 26.043 32.6221 25.7479 32.2479 25.68L32.0832 25.6653ZM26.1322 18.3333C27.6622 18.3333 28.9977 19.1663 29.7098 20.4035C28.7318 20.6008 27.7989 20.9176 26.9251 21.3378C26.7021 21.1768 26.4281 21.0833 26.1322 21.0833H17.8784C17.119 21.0833 16.5034 21.6989 16.5034 22.4583V30.2481C16.5034 32.8347 18.2884 35.0045 20.6938 35.5927C21.0106 36.6296 21.4677 37.6068 22.0413 38.5022L22.0053 38.5C17.4479 38.5 13.7534 34.8055 13.7534 30.2481V22.4583C13.7534 20.1802 15.6002 18.3333 17.8784 18.3333H26.1322ZM13.5783 18.3338C12.8548 19.088 12.3277 20.0321 12.0793 21.084L7.7915 21.0833C7.03211 21.0833 6.4165 21.6989 6.4165 22.4583V27.4977C6.4165 30.0303 8.46955 32.0833 11.0021 32.0833C11.3688 32.0833 11.7254 32.0403 12.0671 31.959C12.2224 32.8829 12.506 33.764 12.8971 34.584C12.2938 34.7473 11.658 34.8333 11.0021 34.8333C6.95077 34.8333 3.6665 31.5491 3.6665 27.4977V22.4583C3.6665 20.2751 5.36263 18.488 7.50908 18.3428L7.7915 18.3333L13.5783 18.3338ZM36.2082 18.3333C38.4863 18.3333 40.3332 20.1802 40.3332 22.4583L40.3347 23.4857C38.1934 21.4301 35.2858 20.1667 32.0832 20.1667L31.6337 20.175C31.3516 19.4868 30.9404 18.8635 30.4322 18.3338L36.2082 18.3333ZM33.9165 7.33333C36.4478 7.33333 38.4998 9.38536 38.4998 11.9167C38.4998 14.448 36.4478 16.5 33.9165 16.5C31.3852 16.5 29.3332 14.448 29.3332 11.9167C29.3332 9.38536 31.3852 7.33333 33.9165 7.33333ZM21.9998 5.5C25.0374 5.5 27.4998 7.96243 27.4998 11C27.4998 14.0376 25.0374 16.5 21.9998 16.5C18.9623 16.5 16.4998 14.0376 16.4998 11C16.4998 7.96243 18.9623 5.5 21.9998 5.5ZM10.0832 7.33333C12.6145 7.33333 14.6665 9.38536 14.6665 11.9167C14.6665 14.448 12.6145 16.5 10.0832 16.5C7.55186 16.5 5.49984 14.448 5.49984 11.9167C5.49984 9.38536 7.55186 7.33333 10.0832 7.33333ZM33.9165 10.0833C32.904 10.0833 32.0832 10.9041 32.0832 11.9167C32.0832 12.9292 32.904 13.75 33.9165 13.75C34.929 13.75 35.7498 12.9292 35.7498 11.9167C35.7498 10.9041 34.929 10.0833 33.9165 10.0833ZM21.9998 8.25C20.4811 8.25 19.2498 9.48122 19.2498 11C19.2498 12.5188 20.4811 13.75 21.9998 13.75C23.5186 13.75 24.7498 12.5188 24.7498 11C24.7498 9.48122 23.5186 8.25 21.9998 8.25ZM10.0832 10.0833C9.07065 10.0833 8.24984 10.9041 8.24984 11.9167C8.24984 12.9292 9.07065 13.75 10.0832 13.75C11.0957 13.75 11.9165 12.9292 11.9165 11.9167C11.9165 10.9041 11.0957 10.0833 10.0832 10.0833Z" fill="#212121"/>
</mask>
<g mask="url(#mask0)">
<path d="M30.1053 21.4209C36.1842 19.684 39.6579 23.7366 41.3947 26.0524C42.8421 27.6928 45.7369 31.784 45.7369 35.0261C45.7369 39.0788 35.6053 45.4472 30.9737 45.4472C26.3421 45.4472 21.7105 38.2103 20.8421 32.4209C19.9737 26.6314 24.0263 23.1577 30.1053 21.4209Z" fill="#2130BB"/>
</g>
</svg>
