<svg width="44" height="44" viewBox="0 0 44 44" fill="none" xmlns="http://www.w3.org/2000/svg">
<path d="M37.5764 10.3154C39.1822 10.8797 40.3334 12.4095 40.3334 14.2082V32.5415C40.3334 36.8447 36.845 40.3332 32.5418 40.3332H14.2084C12.4097 40.3332 10.88 39.182 10.3157 37.5762L14.1607 37.5824L32.5418 37.5832C35.3262 37.5832 37.5834 35.3259 37.5834 32.5415V14.2082L37.5761 14.1147L37.5764 10.3154ZM31.6192 3.6665C33.8974 3.6665 35.7442 5.51333 35.7442 7.7915V31.619C35.7442 33.8972 33.8974 35.744 31.6192 35.744H7.79175C5.51357 35.744 3.66675 33.8972 3.66675 31.619V7.7915C3.66675 5.51333 5.51357 3.6665 7.79175 3.6665H31.6192ZM31.6192 6.4165H7.79175C7.03236 6.4165 6.41675 7.03211 6.41675 7.7915V31.619C6.41675 32.3784 7.03236 32.994 7.79175 32.994H31.6192C32.3786 32.994 32.9942 32.3784 32.9942 31.619V7.7915C32.9942 7.03211 32.3786 6.4165 31.6192 6.4165Z" fill="#1C1B22"/>
<mask id="mask0" mask-type="alpha" maskUnits="userSpaceOnUse" x="3" y="3" width="38" height="38">
<path d="M37.5767 10.3154C39.1825 10.8797 40.3337 12.4095 40.3337 14.2082V32.5415C40.3337 36.8447 36.8452 40.3332 32.542 40.3332H14.2087C12.41 40.3332 10.8802 39.182 10.3159 37.5762L14.1609 37.5824L32.542 37.5832C35.3264 37.5832 37.5837 35.3259 37.5837 32.5415V14.2082L37.5764 14.1147L37.5767 10.3154ZM31.6195 3.6665C33.8977 3.6665 35.7445 5.51333 35.7445 7.7915V31.619C35.7445 33.8972 33.8977 35.744 31.6195 35.744H7.79199C5.51382 35.744 3.66699 33.8972 3.66699 31.619V7.7915C3.66699 5.51333 5.51382 3.6665 7.79199 3.6665H31.6195ZM31.6195 6.4165H7.79199C7.0326 6.4165 6.41699 7.03211 6.41699 7.7915V31.619C6.41699 32.3784 7.0326 32.994 7.79199 32.994H31.6195C32.3789 32.994 32.9945 32.3784 32.9945 31.619V7.7915C32.9945 7.03211 32.3789 6.4165 31.6195 6.4165Z" fill="#212121"/>
</mask>
<g mask="url(#mask0)">
<path d="M36.5359 33.7854V6.67822C39.4168 7.72584 45.5716 10.7639 47.143 14.5354C49.1073 19.2497 49.1073 32.6068 49.1073 35.3568C49.1073 38.1068 38.893 43.6068 36.5359 43.9997C34.1787 44.3925 13.3573 43.2139 11.0001 42.0354C9.11443 41.0925 7.33347 37.9758 6.67871 36.5354H26.3216C30.2501 36.5354 36.5359 36.9282 36.5359 33.7854Z" fill="#2130BB"/>
</g>
</svg>
